name GIL12_slow4EmgEnv.mot
datacolumns 51
datarows 7
range 0.22592595 0.23148151
endheader
                time	   rect_fem_l_emgRec	   rect_fem_l_emgEnv	   rect_fem_l_emgAve	   rect_fem_l_emgSDp	   rect_fem_l_emgSDm	   rect_fem_r_emgRec	   rect_fem_r_emgEnv	   rect_fem_r_emgAve	   rect_fem_r_emgSDp	   rect_fem_r_emgSDm	   med_hams_l_emgRec	   med_hams_l_emgEnv	   med_hams_l_emgAve	   med_hams_l_emgSDp	   med_hams_l_emgSDm	   med_hams_r_emgRec	   med_hams_r_emgEnv	   med_hams_r_emgAve	   med_hams_r_emgSDp	   med_hams_r_emgSDm	   lat_hams_l_emgRec	   lat_hams_l_emgEnv	   lat_hams_l_emgAve	   lat_hams_l_emgSDp	   lat_hams_l_emgSDm	   lat_hams_r_emgRec	   lat_hams_r_emgEnv	   lat_hams_r_emgAve	   lat_hams_r_emgSDp	   lat_hams_r_emgSDm	    tib_ant_l_emgRec	    tib_ant_l_emgEnv	    tib_ant_l_emgAve	    tib_ant_l_emgSDp	    tib_ant_l_emgSDm	    tib_ant_r_emgRec	    tib_ant_r_emgEnv	    tib_ant_r_emgAve	    tib_ant_r_emgSDp	    tib_ant_r_emgSDm	    gas_sol_l_emgRec	    gas_sol_l_emgEnv	    gas_sol_l_emgAve	    gas_sol_l_emgSDp	    gas_sol_l_emgSDm	    gas_sol_r_emgRec	    gas_sol_r_emgEnv	    gas_sol_r_emgAve	    gas_sol_r_emgSDp	    gas_sol_r_emgSDm	
          0.22592595	          0.03431286	          0.08982281	          0.06065282	          0.09213134	          0.02917430	          0.17055854	          0.76583903	          0.30768770	          0.60479528	          0.01058012	          0.00640555	          0.61836072	          0.21681766	          0.43888222	         -0.00524689	          0.00972042	          0.11625465	          0.23366807	          0.41807222	          0.04926392	          0.01309920	          0.08641587	          0.26893207	          0.46577182	          0.07209232	          0.02457198	          0.11149002	          0.12806031	          0.19818386	          0.05793677	          0.18017455	          0.56702696	          0.29104295	          0.45637438	          0.12571153	          0.19732793	          0.24892194	          0.22302940	          0.39228171	          0.05377710	          0.04324074	          0.08663374	          0.02787649	          0.08683931	         -0.03108634	          0.01702229	          0.06230031	          0.18162878	          0.37865984	         -0.01540229	
          0.22685188	          0.03445386	          0.08889196	          0.06078942	          0.09256992	          0.02900892	          0.15868343	          0.77196676	          0.30520535	          0.60135436	          0.00905633	          0.06392476	          0.61011180	          0.21542120	          0.43629894	         -0.00545654	          0.00560939	          0.11518102	          0.23313217	          0.41892068	          0.04734366	          0.01181905	          0.08774487	          0.26763916	          0.46319371	          0.07208461	          0.00521357	          0.11209704	          0.12886088	          0.19988380	          0.05783795	          0.18960080	          0.58285358	          0.29138374	          0.45637824	          0.12638925	          0.14120041	          0.25000039	          0.22209209	          0.39042531	          0.05375887	          0.04755387	          0.08821162	          0.02817450	          0.08701218	         -0.03066318	          0.01974794	          0.06131612	          0.18260759	          0.38041483	         -0.01519965	
          0.22777781	          0.02981347	          0.08800697	          0.06092673	          0.09301040	          0.02884306	          0.11831071	          0.77799854	          0.30274579	          0.59794521	          0.00754637	          0.09321662	          0.60176931	          0.21401744	          0.43370205	         -0.00566718	          0.01998363	          0.11418758	          0.23260340	          0.41976669	          0.04544011	          0.01349296	          0.08909058	          0.26634008	          0.46060680	          0.07207336	          0.00927302	          0.11271220	          0.12967175	          0.20160459	          0.05773892	          0.02240208	          0.59861504	          0.29171935	          0.45637468	          0.12706402	          0.09077667	          0.25127878	          0.22116013	          0.38857834	          0.05374192	          0.00970624	          0.08984534	          0.02847715	          0.08718979	         -0.03023550	          0.01663115	          0.06038678	          0.18359782	          0.38218722	         -0.01499158	
          0.22870372	          0.00003163	          0.08716710	          0.06106468	          0.09345262	          0.02867674	          0.20399397	          0.78392223	          0.30030975	          0.59456891	          0.00605059	          0.00850257	          0.59334855	          0.21260644	          0.43109180	         -0.00587891	          0.03116124	          0.11327480	          0.23208189	          0.42061003	          0.04355375	          0.00476642	          0.09045076	          0.26503488	          0.45801118	          0.07205859	          0.00115410	          0.11333422	          0.13049282	          0.20334600	          0.05763964	          0.18474134	          0.61428921	          0.29204971	          0.45636369	          0.12773572	          0.12149923	          0.25274364	          0.22023341	          0.38674098	          0.05372584	          0.01460667	          0.09152990	          0.02878432	          0.08737204	         -0.02980340	          0.00565036	          0.05951074	          0.18459946	          0.38397697	         -0.01477805	
          0.22962965	          0.05845719	          0.08637151	          0.06120325	          0.09389650	          0.02851000	          0.06366221	          0.78972599	          0.29789767	          0.59122601	          0.00456932	          0.00929230	          0.58486446	          0.21118838	          0.42846830	         -0.00609155	          0.01701022	          0.11244300	          0.23156776	          0.42145054	          0.04168497	          0.01919139	          0.09182308	          0.26372358	          0.45540699	          0.07204017	          0.01513416	          0.11396183	          0.13132395	          0.20510785	          0.05754004	          0.15428130	          0.62985366	          0.29237482	          0.45634533	          0.12840430	          0.03684491	          0.25438168	          0.21931189	          0.38491343	          0.05371036	          0.01803651	          0.09326018	          0.02909594	          0.08755880	         -0.02936693	          0.00747089	          0.05868635	          0.18561254	          0.38578406	         -0.01455897	
          0.23055558	          0.08923582	          0.08561928	          0.06134243	          0.09434196	          0.02834290	          0.13509503	          0.79539834	          0.29551005	          0.58791739	          0.00310272	          0.24631819	          0.57633156	          0.20976342	          0.42583197	         -0.00630513	          0.00246684	          0.11169236	          0.23106106	          0.42228791	          0.03983420	          0.02552533	          0.09320509	          0.26240641	          0.45279452	          0.07201830	          0.02551743	          0.11459375	          0.13216504	          0.20688993	          0.05744015	          0.34435503	          0.64528569	          0.29269466	          0.45631963	          0.12906969	          0.03114729	          0.25617980	          0.21839562	          0.38309610	          0.05369514	          0.02235430	          0.09503090	          0.02941189	          0.08774999	         -0.02892621	          0.01856769	          0.05791194	          0.18663709	          0.38760862	         -0.01433444	
          0.23148151	          0.09163914	          0.08490937	          0.06148215	          0.09478886	          0.02817544	          0.24780196	          0.80092817	          0.29314750	          0.58464372	          0.00165129	          0.34551424	          0.56776390	          0.20833169	          0.42318296	         -0.00651959	          0.00231025	          0.11102298	          0.23056193	          0.42312197	          0.03800188	          0.01816551	          0.09459423	          0.26108336	          0.45017390	          0.07199283	          0.03136511	          0.11522871	          0.13301590	          0.20869197	          0.05733983	          0.75009394	          0.66056240	          0.29300910	          0.45628656	          0.12973164	          0.21079985	          0.25812520	          0.21748446	          0.38128909	          0.05367982	          0.03062927	          0.09683667	          0.02973209	          0.08794549	         -0.02848131	          0.01046483	          0.05718576	          0.18767306	          0.38945051	         -0.01410438	
